<svg width="228" height="96" viewBox="0 0 228 96" fill="none" xmlns="http://www.w3.org/2000/svg">
<path d="M0.980777 38.1867C2.68449 43.0934 7.3697 46.5067 12.9068 47.36C15.6753 47.7867 18.2308 47.5734 20.7864 46.7201C23.9808 45.6534 26.3235 43.9467 27.8142 41.6C28.879 40.5333 29.7309 39.2533 30.7957 38.4C39.1013 30.08 50.8142 24.96 62.5272 24.1067C68.7032 23.68 75.0921 24.5333 82.3328 26.88C80.4162 26.88 78.7125 27.0934 77.0087 27.3067C76.3699 27.3067 75.731 27.5201 75.0921 27.5201C75.0921 27.3067 74.8791 26.88 74.8791 26.6667C74.2402 25.6 73.1754 25.1734 72.3236 24.96C71.4717 24.7467 70.4069 24.5333 69.3421 24.5333C67.4254 24.5333 65.2957 24.96 63.1661 25.8133C59.5457 27.3067 56.3513 30.2933 54.4347 34.3467C53.5828 36.0533 52.7309 38.1867 52.305 40.3201V40.5333C52.305 40.96 52.092 41.3867 52.092 41.8133C52.092 42.24 52.0921 42.4533 52.305 42.6667C52.518 42.88 52.7309 43.0934 53.1569 43.0934C53.5828 43.0934 54.0087 43.0933 54.4347 42.88H54.8605C55.4994 42.88 56.1383 42.6667 56.7772 42.6667C61.8883 41.8133 66.5735 40.5333 70.6198 38.4C72.9624 37.3333 74.4532 35.84 75.3051 34.1333C75.944 32.4267 76.1569 30.72 75.518 29.0133C79.3514 28.3733 83.1847 28.3734 86.1662 28.16C86.3792 28.16 86.3791 28.16 86.5921 28.16C90.6384 29.6534 94.4718 31.1467 98.0922 32.8534L99.7959 33.4934C104.907 35.6267 110.231 37.9733 115.555 39.68C121.731 41.8133 128.333 43.0934 134.935 43.5201C134.509 44.1601 134.083 44.5867 133.657 45.2267C131.314 48.4267 128.972 51.84 125.99 54.6133C122.583 58.0267 118.324 60.8 113.639 62.5067C108.953 64.2134 103.842 65.0667 98.944 64.8534C94.4718 64.6401 89.7866 63.5734 84.0366 61.2267C81.9069 60.3734 79.7773 59.3067 77.6477 58.4534C75.0921 57.1734 72.3235 56.1067 69.555 55.04H69.3421C68.7032 53.3334 68.0643 51.6267 66.9995 50.3467C67.2125 50.1334 67.4254 49.9201 67.6384 49.9201C68.4902 49.0667 68.9161 48 68.7032 46.9333C68.2773 44.8 66.1476 44.16 64.2309 44.3734C62.3143 44.3734 60.3976 45.2267 59.3328 46.7201C58.9069 47.1467 58.268 48.4267 58.268 49.7067C58.4809 50.56 59.1198 51.4134 59.9717 51.84C61.0365 52.2667 62.7402 52.48 64.018 51.84C64.6569 52.48 65.0828 53.12 65.5087 53.9734C61.6754 52.6934 58.055 51.84 54.2217 51.2C43.3605 49.4933 32.9253 50.7733 24.1938 54.6133C18.8697 56.96 15.4623 59.9467 13.5456 63.5734C11.8419 67.2 11.416 72.5333 15.0364 75.9467C18.4438 79.36 24.4067 79.1467 28.2401 77.2267C32.0734 75.3067 34.2031 71.8933 33.7772 68.2667C33.5642 66.1333 32.0734 64.2133 30.1568 63.1467C28.453 62.2934 26.5364 62.2934 25.0456 63.1467C23.5549 64 22.703 65.4933 22.703 67.4134C22.703 68.9067 23.342 70.1867 24.4068 71.04C24.4068 71.04 24.4068 71.0401 24.4068 71.2534C23.7679 71.6801 23.5549 71.8933 23.342 72.5333C23.129 73.3867 23.5549 74.0267 24.4068 74.4534C25.4716 74.8801 26.9623 74.88 28.2401 74.24C29.3049 73.6 30.3697 72.5334 30.1568 71.2534C30.1568 70.6134 29.7308 69.9734 29.0919 69.76C28.453 69.3334 27.8142 69.5467 27.1753 69.5467C26.5364 69.76 25.8975 69.9733 25.2586 70.4C24.6197 69.9733 24.1938 69.3334 23.9808 68.9067C23.5549 68.0534 23.7679 66.9867 24.1938 66.1333C25.0457 64.4267 27.3882 64.0001 29.0919 64.8534C31.2216 65.7067 32.0735 68.2667 31.8605 70.1867C31.4346 74.6667 26.5364 77.44 22.2771 77.44C17.5919 77.44 14.1845 74.6667 13.7586 70.4C13.3327 66.3467 15.4623 62.2934 19.5086 59.0934C22.916 56.7467 27.1753 54.8267 32.4994 53.5467C36.9716 52.48 41.8698 52.0533 46.768 52.2667C52.518 52.48 58.2679 53.5467 64.2309 55.4667C59.7587 55.8933 55.4994 57.1733 51.8791 59.7333H51.6661C50.3883 58.0267 47.8328 57.3867 45.9161 57.8134C44.6383 58.24 43.5735 58.88 43.1475 59.9467C42.7216 60.8 42.5087 61.8667 42.5087 63.36C42.7216 66.1334 43.9994 68.2667 45.9161 69.5467C47.8328 70.8267 50.8142 71.04 52.5179 68.9067C53.1568 68.0534 53.3698 66.9867 53.5827 65.9201C53.5827 65.7067 53.5827 65.4933 53.5827 65.28V65.0667C53.7957 64.2133 54.0087 63.1467 53.3698 62.5067C53.3698 62.5067 53.3698 62.2934 53.5827 62.2934C54.6476 61.6534 55.7124 61.2267 56.5643 60.5867C61.4625 58.4534 66.7865 57.6001 72.1106 58.4534H72.3236C72.9625 58.6667 73.8143 59.0934 74.4532 59.3067L75.0921 59.5201C76.1569 59.9467 77.0087 60.3733 78.0736 60.8C77.8606 61.0133 77.4347 61.2267 77.2217 61.6534H77.0087C76.1569 61.4401 74.6662 61.0134 73.6014 61.6534C73.1755 61.8667 72.7495 62.5067 72.5366 62.9333C71.2588 62.9333 70.1939 62.9333 68.9162 63.1467C66.3606 63.7867 64.231 65.0667 62.5272 67.2C61.0365 68.9067 59.9717 71.04 58.9068 74.24C57.842 77.0134 57.2031 80.0001 56.7772 82.9867C56.5642 83.4134 56.3513 83.84 56.1383 84.48C56.1383 84.6934 55.9254 85.12 55.9254 85.5467L52.092 84.2667C51.8791 84.2667 51.6661 84.2667 51.4531 84.2667C51.2401 84.48 51.0272 84.48 51.0272 84.9067C50.8143 85.9734 51.4531 86.8267 52.7309 87.8934C53.1568 88.32 53.7958 88.5333 54.4347 88.7467C53.5828 89.8134 52.9439 91.3067 52.7309 92.8C52.7309 93.0133 52.7309 93.44 53.1569 93.44C53.3698 93.6534 53.7957 93.6534 54.0087 93.44L55.9254 92.16C55.9254 93.44 56.5643 94.5067 57.2032 95.5734C57.4161 95.7867 57.6291 96 57.842 96H58.055C58.4809 95.7867 58.6939 95.5733 58.4809 95.1467C58.4809 94.72 58.4809 94.2934 58.4809 93.6534C59.5458 94.9334 61.2495 95.5733 62.7402 95.1467C62.9532 95.1467 63.1661 94.9334 63.3791 94.5067C63.3791 94.2934 63.3791 94.08 63.1661 93.8667L61.4624 91.9467C61.2495 91.7334 60.8236 91.3067 60.8236 90.88C61.6754 90.88 62.3143 90.6667 63.1661 90.4534C64.6569 90.0267 65.9347 89.6 67.2125 88.96C71.0458 87.2534 76.3699 84.0534 79.3514 78.5067C80.6291 75.9467 81.2681 73.1734 81.0551 70.1867C81.0551 69.1201 80.8421 67.84 80.2032 66.7734C80.4162 66.3467 80.6292 65.92 80.8421 65.28C80.8421 64.4267 80.6291 63.5733 80.2032 62.9333C80.6291 62.5067 81.2681 62.08 81.9069 61.8667C87.444 64.2133 94.2588 66.56 101.713 66.1333C110.231 65.7067 118.75 62.5067 125.139 56.96C124.713 58.4534 123.861 59.9467 122.583 61.44C120.666 64 118.324 66.3467 115.555 68.2667C114.916 67.2 113.638 66.56 112.148 66.3467C109.166 65.7067 105.759 66.9867 101.926 69.5467C100.648 70.4 99.5829 71.4667 98.3051 72.5333C96.8144 74.0267 95.1107 75.3067 93.194 76.5867C92.7681 76.8001 92.7681 77.2267 92.7681 77.6534C93.194 78.7201 94.4718 78.9333 95.3236 79.1467H95.5366C96.8144 79.5733 97.8792 79.7867 99.157 79.7867C103.842 80.4267 107.676 79.7867 110.87 78.08C114.064 76.16 116.194 72.96 116.407 69.76V69.5467C117.472 68.6934 118.75 67.6267 119.601 66.7734C121.518 64.8534 123.009 63.1467 124.287 61.44C125.777 59.0934 126.842 56.96 127.055 54.8267C129.824 52.0534 132.166 48.64 134.509 45.44L134.722 45.0133C135.148 44.3733 135.787 43.52 136.213 42.88C148.778 43.52 161.342 41.6 172.204 39.4667C171.352 39.8933 170.5 40.32 169.861 40.7467C168.583 41.6 167.305 42.24 166.028 43.0934C163.472 41.3867 160.278 42.24 157.722 43.0934C152.398 45.2267 148.352 49.4934 146.222 55.04C144.944 58.0267 144.518 61.2267 143.879 64.2133C143.453 66.9867 142.814 69.7601 141.963 72.3201C141.963 72.5334 141.963 72.96 142.176 73.1734C142.389 73.3867 142.814 73.3867 143.027 73.3867C145.583 72.5334 148.352 71.2533 150.694 69.5467C154.953 66.7734 158.574 63.1467 161.342 58.88C164.111 54.6133 166.028 49.7067 166.879 44.8V44.5867C170.926 41.8134 175.185 39.4667 179.87 37.76C182.213 37.3334 184.555 36.6933 186.898 36.2667C190.518 35.4133 194.352 34.56 197.972 33.7067L198.611 33.4934C205.213 32 212.241 30.5067 219.055 30.9333L219.268 31.1467C219.481 31.1467 219.481 31.36 219.694 31.36C220.972 32.2134 222.25 32.8533 223.741 33.0667C224.38 33.28 225.018 33.28 225.657 33.28C226.296 33.28 226.722 33.28 227.148 33.0667C227.787 32.8533 228 32.2134 228 31.5734C227.787 30.72 227.148 30.2933 226.722 30.08C224.38 28.8 221.824 28.5867 219.268 29.2267C217.565 27.9467 216.074 26.88 214.37 25.8133C200.954 17.4933 184.342 14.9334 169.009 18.7734C166.028 19.2 163.046 19.4134 160.065 19.6267C160.703 18.7734 161.129 17.7067 161.129 16.64C161.129 14.2934 159.639 12.3734 158.361 11.0934C154.102 7.04003 147.713 4.90672 138.981 5.12005C136.426 5.12005 133.87 5.33336 131.314 5.76003C125.99 6.18669 120.453 6.82668 115.129 5.54668C114.916 5.54668 114.49 5.54669 114.49 5.76003C114.277 5.97336 114.277 6.40001 114.277 6.61335C115.768 10.0267 117.898 14.5067 120.879 18.1333C123.222 21.12 126.203 23.4667 129.398 25.1734C132.592 26.88 136.213 27.9467 139.833 28.16C143.666 28.3734 147.5 27.7334 151.12 26.4534C151.333 26.4534 151.333 26.24 151.546 26.24C145.37 30.08 140.046 35.2001 135.574 41.3867C133.018 41.1734 130.676 40.96 128.333 40.7467C126.416 40.5333 124.713 40.1067 122.583 39.68C122.583 39.4667 122.37 39.4667 122.157 39.4667C120.879 38.8267 119.814 38.1867 118.537 37.3333C116.407 35.84 114.703 34.3467 113.213 32.64C111.509 30.72 110.657 29.0134 110.231 27.0934C110.444 26.88 110.444 26.6667 110.657 26.6667C111.083 25.8133 111.296 24.7467 110.87 23.8934C110.657 23.4667 110.444 23.04 110.018 22.6133C110.231 21.3333 110.018 20.2667 109.805 19.2C109.166 16.4267 107.888 13.8667 105.972 11.7333C101.713 7.04 95.7496 5.33336 91.7033 4.69336C90.2125 4.48003 88.9347 4.48 87.231 4.26667C86.3792 4.26667 85.5273 4.26668 84.8884 4.48001C84.8884 4.05335 85.1014 3.62668 85.3144 3.41335L86.5921 1.06667C86.8051 0.853333 86.8051 0.640026 86.5921 0.426693C86.3791 0.213359 86.1662 0 85.9532 0C84.2495 0 82.9718 1.06669 82.1199 2.56003C81.907 2.13336 81.9069 1.70668 81.694 1.28001C81.694 0.853346 81.2681 0.640039 81.0551 0.640039H80.8421C80.6292 0.640039 80.2032 0.853346 80.2032 1.28001C79.9902 2.56001 79.7773 3.84004 79.9903 4.90671L77.8606 4.26667C77.6477 4.26667 77.2217 4.26668 77.0087 4.48001C76.7958 4.69335 76.7958 4.90667 76.7958 5.33333C77.4347 6.61333 78.2866 7.89335 79.5643 8.74668C78.9254 9.17335 78.4995 9.60003 78.0736 10.0267C77.0087 11.3067 76.7958 12.3734 77.2217 13.2267C77.4347 13.44 77.4347 13.6534 77.6477 13.6534C77.8606 13.6534 78.0736 13.6534 78.2865 13.6534L81.481 11.5201C81.694 11.7334 81.694 12.16 81.9069 12.3734C82.1199 12.8 82.5458 13.2267 82.9718 13.6534C84.0366 16.4267 85.5273 19.2 87.231 21.5467C88.9347 24.1067 90.8514 26.0267 92.5551 27.3067C94.6848 28.8 97.2403 29.6534 99.7959 29.44C101.074 29.44 102.139 29.2267 103.416 28.8C103.629 29.2267 104.268 29.6533 104.694 29.8667C105.546 30.08 106.398 29.8667 107.037 29.6534C107.463 30.9334 107.889 32 108.527 33.0667C109.379 34.3467 110.444 35.6267 111.509 36.6934C107.25 35.2 102.99 33.28 98.944 31.5734C96.3885 30.5067 94.0459 29.4401 91.4903 28.5867C86.8051 26.6667 80.4162 24.32 73.8143 23.04C67.8513 21.9734 61.6754 21.9734 55.7124 23.04C53.3698 23.4667 51.2402 24.1067 48.8976 24.7467C48.6846 24.5333 48.4716 24.5333 48.2587 24.5333C47.1938 24.7467 46.342 24.1067 45.4902 23.4667L45.0642 23.04C44.6383 22.6134 44.2124 22.4001 43.5735 22.1867C43.5735 21.7601 43.5735 21.5467 43.5735 21.1201C43.3605 20.2667 43.1476 19.6267 42.7217 18.7734C41.8698 17.28 40.379 16.2134 38.8883 15.7867C36.1197 14.9334 32.9253 15.36 29.5179 17.0667C28.666 17.4933 27.8142 17.92 27.1753 18.3467C27.1753 18.3467 26.9623 18.3467 26.9623 18.56C26.3234 18.7734 25.6846 19.2001 25.4716 20.0534C25.4716 20.4801 25.8975 20.9067 26.1105 21.1201C26.3234 21.3334 26.7493 21.76 26.9623 21.9734C27.6012 22.4 28.0272 23.04 28.879 23.4667C30.1568 24.32 31.4346 24.96 33.1383 25.6C34.842 26.24 36.1197 26.88 37.6105 27.3067C39.5271 27.7334 41.0179 27.7333 42.2957 26.88C43.3605 26.24 43.9994 25.3867 43.9994 24.3201C44.4253 24.5334 44.6383 24.7467 45.0642 25.1734L45.2772 25.3867C45.7031 25.6001 45.9161 25.8134 46.342 26.0267C38.2494 29.2267 31.2216 34.3467 25.6846 40.7467V40.96C25.2586 41.3867 25.0457 41.8134 24.6198 42.24C21.4253 45.44 16.1012 46.7201 10.99 45.6534C8.64743 45.0134 6.51781 43.9467 4.8141 42.6667C3.11039 41.1733 1.83264 39.2534 1.19375 37.1201C-0.296991 32.6401 0.980764 27.7334 3.96225 24.96C5.87893 23.2534 8.43452 22.4 10.7771 22.8267C12.9068 23.2534 15.0363 24.96 15.4623 27.0934C15.8882 29.0134 15.0363 31.1467 13.3326 32.2133C12.4808 32.64 11.629 32.8534 10.7771 32.8534C10.1382 32.6401 9.28633 32.2134 9.07337 31.7867C9.71226 31.5734 10.5641 31.36 11.203 30.9333C11.6289 30.5067 12.2678 30.08 12.4808 29.44C12.6938 28.8 12.6937 28.1601 12.2678 27.5201C11.6289 26.6667 10.1382 26.2401 8.64748 26.4534C7.3697 26.6667 6.30487 27.3067 5.24005 28.16L5.02707 28.3734C4.81411 28.5867 4.8141 28.8 4.8141 29.0133C4.8141 29.2267 5.02709 29.4401 5.24005 29.6534C5.24005 30.0801 5.45297 30.2934 5.66594 30.7201C6.09186 31.1467 6.73081 31.5734 7.58266 31.5734C7.58266 32 7.79559 32.2134 8.00855 32.64C8.64744 33.4934 9.49933 33.92 10.7771 34.1333C12.2679 34.3467 13.7586 33.9201 15.0364 32.8534C16.1012 32.0001 16.7401 30.9333 17.166 29.8667C17.592 28.5867 17.5919 27.3067 16.953 26.0267C16.1012 23.4667 13.5456 21.5467 10.7771 21.1201C8.00859 20.6934 5.02706 21.76 2.68446 24.1067C0.128897 27.3067 -0.935895 33.0667 0.980777 38.1867ZM8.00855 29.8667C7.79559 29.8667 7.58265 29.6534 7.36969 29.44C7.36969 29.2267 7.36969 29.2267 7.36969 29.0133V28.8C7.36969 29.2267 7.58261 29.4401 7.79557 29.6534L8.00855 29.8667ZM11.629 28.16C11.629 27.9467 11.6289 27.9467 11.416 27.9467C11.6289 27.9467 11.8419 28.16 11.8419 28.16C12.0549 28.3734 12.0548 28.3734 12.0548 28.3734C12.0548 28.5867 11.8419 29.0134 10.99 29.44C10.7771 29.6534 10.5641 29.6533 10.3512 29.8667C10.7771 29.6533 10.9901 29.44 11.416 29.2267C11.416 28.8 11.629 28.3734 11.629 28.16ZM40.8049 18.1333C41.8698 18.7733 42.5086 19.84 42.9346 20.9067C42.9346 21.12 43.1475 21.3333 43.1475 21.5467C39.3142 19.6267 35.2679 18.9867 31.6475 19.84C31.2216 19.84 31.0087 20.2667 31.0087 20.6934C31.0087 20.9067 31.2216 21.1201 31.2216 21.1201C31.4345 21.3334 31.6475 21.3333 31.8605 21.3333C33.1383 21.12 34.629 20.9067 35.9068 21.1201C38.2494 21.3334 40.592 21.9734 42.9346 23.2534V23.4667C43.1475 24.5333 42.2957 25.6 41.2309 25.8133C39.7401 26.24 38.0364 25.6 36.7586 25.1734C34.416 24.32 31.6475 23.2533 29.5179 21.5467C28.879 21.12 28.453 20.6933 28.0271 20.2667C28.453 20.0533 28.6661 19.84 28.879 19.84H29.0919C30.3697 19.2 31.6476 18.3467 33.1383 17.9201C34.4161 17.2801 38.0364 16.4267 40.8049 18.1333ZM73.8143 27.7333C69.768 28.3733 66.1477 29.6533 62.9532 31.1467C59.7587 32.64 57.2031 34.7734 54.8605 36.9067C55.2865 35.84 55.9254 34.56 56.5643 33.7067C58.6939 30.2934 61.4624 27.9467 64.6569 26.88C66.3606 26.24 68.2773 26.0267 69.981 26.24C71.0458 26.24 71.8977 26.4533 72.5366 26.88C72.9625 26.88 73.6013 27.3067 73.8143 27.7333ZM74.2402 30.08C74.6662 31.7867 74.2402 33.4934 73.1754 34.7734C72.1106 36.2667 70.4069 36.9067 68.4902 37.76C64.4439 39.4667 60.1846 40.7467 55.7124 41.1734C55.0735 41.1734 54.6476 41.3867 54.0087 41.3867H53.5827C53.5827 41.1734 53.7957 40.96 53.7957 40.7467C54.0087 40.7467 54.0087 40.5333 54.2217 40.5333C55.4995 38.6133 57.2031 36.9067 59.1198 35.4133C62.3143 32.8533 66.3606 31.1467 71.0458 29.8667C72.1106 29.6533 72.9625 29.44 74.2402 29.2267C74.0273 29.6534 74.0273 29.8667 74.2402 30.08ZM83.6106 5.12005C83.3977 4.26672 83.8236 3.41337 84.4625 2.77337C84.2495 2.98671 84.2496 3.20001 84.2496 3.41335C83.8236 4.26668 83.6106 4.90668 83.8236 5.54668C83.8236 5.54668 83.6106 5.54669 83.6106 5.76003C83.6106 5.54669 83.8236 5.33339 83.6106 5.12005ZM95.1106 27.0934C93.4069 26.0267 91.7032 24.5333 89.9995 22.4C88.2958 20.2667 87.018 17.92 85.7403 15.36C85.5273 14.9334 85.3144 14.72 85.3144 14.2934C89.5736 18.7734 94.0458 23.04 99.3699 26.24C100.648 26.88 101.926 27.7333 103.416 27.9467C100.648 28.5867 97.6662 28.3734 95.1106 27.0934ZM106.824 25.6C106.398 25.8133 105.972 26.0267 105.546 26.24H105.333C103.629 26.24 102.138 25.6 100.435 24.7467C98.944 23.8933 97.4533 23.04 95.9626 21.9734C93.407 20.0534 90.8514 17.9201 88.0829 14.7201C86.8051 13.4401 85.5273 11.9467 84.0366 10.4534C84.0366 10.2401 84.0366 10.0267 83.8236 9.81335C83.6106 9.60001 83.6106 9.38671 83.6106 9.17337H83.8236C84.0366 9.17337 84.2495 9.38672 84.6754 9.38672C85.7403 9.60005 86.8051 10.0267 87.6569 10.24C89.5736 10.88 91.4903 11.7333 93.407 12.8C97.2403 14.9333 100.648 17.4933 103.203 20.48C104.481 22.1867 105.759 23.8933 106.824 25.6ZM83.6106 7.68001L83.8236 7.46667C83.8236 7.46667 83.8236 7.25339 84.0366 7.25339C88.0829 7.04005 92.1292 7.68005 95.9626 9.38672C100.009 11.3067 103.416 14.08 105.759 17.28C106.824 18.9867 108.101 21.3334 107.676 23.8934C105.546 20.48 102.777 17.4933 99.5829 14.9333C95.9625 12.16 91.9162 10.0267 87.444 8.53333C86.1662 8.32 84.8884 8.10668 83.6106 7.68001ZM95.1106 7.25339C98.944 8.10672 102.139 9.81336 104.481 12.16C106.398 13.8667 107.676 16 108.314 18.3467C108.527 18.9867 108.74 19.6267 108.74 20.2667C107.676 16.64 104.907 13.6533 102.99 11.9467C100.648 10.0267 97.8792 8.53339 95.1106 7.25339ZM109.805 24.7467C110.018 24.96 110.018 25.3867 110.018 25.6C110.018 26.0267 109.805 26.24 109.592 26.6667C109.379 26.6667 109.379 26.88 109.379 26.88C109.379 27.0933 109.166 27.0934 109.166 27.3067L108.953 27.5201C108.314 28.1601 107.463 28.5867 106.611 28.8C106.398 28.8 105.972 29.0133 105.546 28.8C105.546 28.8 105.546 28.8 105.333 28.8C105.972 28.3733 106.611 27.9467 107.25 27.5201C108.527 26.4534 109.379 25.6 109.805 24.7467ZM115.555 37.1201C115.981 37.5467 116.62 37.9733 117.046 38.4C113.213 36.48 110.231 33.0667 109.166 29.2267L109.379 29.0133C109.592 29.8667 110.018 30.72 110.444 31.5734C111.509 33.28 113.213 35.2001 115.555 37.1201ZM81.694 10.24L79.3514 11.7333C79.5643 11.52 79.5643 11.3067 79.7773 11.0934C80.2032 10.4534 80.8421 10.0267 81.481 9.6C81.694 10.0267 81.694 10.24 81.694 10.24ZM79.5643 6.61335L81.481 7.25339C81.694 7.25339 81.907 7.25339 82.1199 7.25339C82.1199 7.46672 81.9069 7.68003 81.9069 7.89336V7.68001V7.89336C81.9069 8.10669 81.694 8.32005 81.694 8.32005C80.8421 7.89339 80.2032 7.46668 79.5643 6.61335ZM81.9069 5.12005C82.1199 5.33339 82.1199 5.54669 82.3328 5.76003C82.5458 5.97336 82.7588 5.97337 83.1847 5.97337L82.9718 6.18672C82.7588 6.40005 82.7588 6.40001 82.5458 6.61335C82.5458 6.40001 82.5458 6.18671 82.3328 5.97337C82.1199 5.76004 81.9069 5.54672 81.9069 5.12005ZM165.602 46.5067C165.176 48.64 164.537 50.9867 163.472 53.1201C161.555 57.6001 158.787 61.6533 155.166 65.0667C151.972 68.0533 148.352 70.4 144.305 72.1067C144.944 69.76 145.37 67.4134 145.796 65.28L146.009 64.2133C146.435 61.6534 147.074 58.6667 148.139 56.1067C149.203 53.5467 150.694 51.4134 152.611 49.4934C154.528 47.5734 156.657 46.2934 159.213 45.2267C160.916 44.5867 163.259 43.9467 165.176 45.0133C161.981 47.36 158.787 50.1333 156.231 53.3333C151.972 58.0267 148.777 63.36 146.435 68.9067C146.435 69.12 146.435 69.3334 146.435 69.5467C146.648 69.76 146.861 69.9734 147.074 69.76C147.287 69.76 147.5 69.5467 147.713 69.3333C148.99 66.1333 150.694 63.1467 152.611 60.3734C156.018 55.4667 160.065 50.9867 164.75 47.1467C164.963 46.9333 165.389 46.72 165.602 46.5067ZM179.87 36.9067C177.528 37.3334 174.546 38.1867 171.352 38.8267C163.046 40.5334 150.481 42.6667 137.916 42.0267C140.259 39.04 142.389 36.6934 144.518 34.56C151.333 28.16 159.426 23.4667 168.37 20.9067C168.583 20.9067 169.009 20.6934 169.222 20.6934H169.435L170.5 20.48C170.713 20.48 170.926 20.2667 170.926 20.2667C186.898 16.64 204.148 20.0533 217.565 29.8667C216.713 29.8667 216.074 29.8667 215.222 29.8667C208.62 30.2933 202.231 31.7867 195.842 33.0667L193.5 33.7067C191.37 34.1334 189.454 34.56 187.324 35.2C184.981 35.84 182.639 36.2667 180.296 36.9067C180.083 36.9067 179.87 36.9067 179.87 36.9067ZM159.639 21.76C160.491 21.76 161.342 21.5467 162.194 21.5467C161.129 21.9733 159.852 22.4 158.787 23.04C158.361 23.2534 158.148 23.2533 157.722 23.4667C158.148 23.2533 158.574 22.8267 158.787 22.6133C159.213 22.6133 159.426 22.1867 159.639 21.76ZM156.657 22.6133C155.805 23.2533 154.953 23.6801 154.102 24.3201C152.398 25.3867 150.481 26.0267 148.565 26.6667C141.963 28.5867 134.722 27.52 128.972 23.68C126.203 21.9733 123.648 19.4134 121.518 16.4267C119.814 14.08 118.324 11.52 116.833 7.89336C120.879 8.53336 125.139 8.32004 128.759 8.10671C129.824 8.10671 130.889 7.89336 132.166 7.89336C137.916 7.25336 144.092 6.82672 149.842 8.32005C153.25 9.17339 156.018 10.88 158.148 12.8C159.213 13.8667 160.278 15.36 160.278 17.0667C160.278 18.1333 159.852 19.6267 158.361 20.2667C158.361 20.2667 158.148 20.2667 158.148 20.48H157.935C153.889 20.6933 150.481 20.9067 147.074 20.6934C143.24 20.48 139.833 20.0534 137.065 18.9867C131.102 16.8534 125.99 12.8 121.305 8.53333C121.092 8.32 120.453 8.32 120.24 8.53333C120.027 8.96 120.027 9.38667 120.24 9.6C122.583 11.7333 125.564 14.2934 128.972 16.4267C131.953 18.3467 134.935 19.84 137.703 20.6934C140.685 21.5467 144.092 21.9734 148.139 22.1867C151.546 22.1867 154.741 22.1867 157.722 21.9734C157.296 22.1867 156.87 22.4 156.657 22.6133ZM226.935 32.4267C226.935 32.4267 226.722 32.4267 226.509 32.4267C226.083 32.4267 225.657 32.4267 225.231 32.4267C224.593 32.4267 224.167 32.2133 223.741 32C222.889 31.7867 222.25 31.36 221.611 30.9333C222.25 30.9333 222.676 30.9333 223.315 30.9333C224.38 31.1467 225.231 31.3601 226.083 31.7867H226.296C226.722 32.2134 226.935 32.4267 226.935 32.4267ZM115.129 71.2534C114.916 72.5334 114.277 73.6 113.426 74.6667C111.509 77.0133 108.74 78.5067 105.333 78.9333C103.629 79.1467 101.713 79.1467 99.5829 78.7201C98.731 78.5067 97.6663 78.2934 96.8144 78.08H96.3884C95.9625 78.08 95.5366 77.8667 95.3236 77.6534C96.8144 76.5867 98.0922 75.52 99.157 74.6667L99.7959 74.24C102.138 72.1067 104.694 69.9734 107.676 68.9067C109.379 68.2667 110.87 68.0533 112.361 68.2667C113.426 68.48 114.277 68.9067 114.916 69.76C114.277 70.1867 113.639 70.6134 113 71.04C109.166 73.6 104.907 75.3067 100.435 76.3734C100.009 76.3734 99.7959 76.8 99.7959 77.2267C99.7959 77.44 100.009 77.6534 100.009 77.6534C100.222 77.8667 100.435 77.8667 100.648 77.8667C103.203 77.2267 105.759 76.3734 108.314 75.3067C110.657 74.0267 113 72.7467 115.129 71.2534ZM52.092 62.5067C52.092 62.72 52.305 62.9333 52.5179 62.9333C52.7309 62.9333 52.7309 63.1467 52.7309 64C52.7309 64.4267 52.5179 64.8533 52.5179 65.28V65.7067C52.5179 66.1334 52.305 66.7733 52.092 67.2C51.8791 67.6267 51.6661 67.8401 51.0272 68.0534C49.9624 68.4801 48.8976 68.4801 48.0457 68.0534V66.56L48.4716 66.9867L48.2587 66.3467C48.4716 66.1333 48.6846 65.7067 48.6846 65.28C48.6846 64.2133 47.8328 62.9334 46.768 62.7201C46.342 62.7201 46.1291 62.72 45.7031 62.9333L45.4902 62.7201L45.7031 63.1467C45.4902 63.36 45.2772 63.5734 45.2772 63.7867C45.0642 64.4267 45.2772 64.8533 45.4902 65.0667C45.7031 65.7067 46.1291 66.1333 46.768 66.3467C46.9809 66.3467 47.1939 66.56 47.4068 66.56L48.2587 68.2667C47.6198 68.0533 47.1939 67.6267 46.768 67.2C45.4902 65.92 44.8513 64 44.8513 62.08C44.8513 61.0134 45.0642 60.3733 45.7031 59.7333C46.1291 59.3067 46.9809 58.88 48.0457 58.88C49.5365 58.88 51.0272 59.3067 51.6661 60.8C51.6661 61.0133 51.8791 61.2267 52.092 61.2267L52.7309 62.08C52.092 62.2934 52.092 62.2934 52.092 62.5067ZM63.1661 56.96C59.9717 57.6 56.7772 58.6667 54.0087 60.3734C54.6476 59.9467 55.2865 59.52 55.9254 59.3067C58.268 58.0267 60.8235 57.1734 63.1661 56.96ZM67.2125 47.5734C66.9995 48.4267 66.3606 49.0667 65.2957 49.4934H65.0828C65.0828 49.4934 65.0828 49.4934 64.8699 49.4934C64.6569 49.4934 64.4439 49.4934 64.2309 49.7067C63.805 50.3467 62.9532 50.3467 62.3143 50.3467C61.4624 50.3467 60.8235 50.1334 60.3976 49.9201C60.1846 49.7067 59.9717 49.4933 59.9717 49.0667C59.9717 48.2133 60.6106 47.36 61.2495 46.9333C61.4624 46.72 61.8883 46.5067 62.3143 46.2934L62.5272 46.7201L62.3143 46.2934C62.1013 46.2934 61.8884 46.5067 61.8884 46.9333C61.6754 47.1467 61.6754 47.5733 61.6754 48C61.6754 48 61.6754 48 61.6754 48.2133C61.8884 48.4267 61.8883 48.64 62.1013 48.64C62.3143 48.64 62.3143 48.64 62.5272 48.64C62.7402 48.64 62.9531 48.64 63.1661 48.4267C63.3791 48.4267 63.5921 48.2133 63.805 48C64.018 47.7867 64.2309 47.5734 64.2309 47.36C64.4439 46.9334 64.231 46.5067 64.018 46.2934C63.8051 46.08 63.592 45.8667 63.1661 45.8667C63.805 45.6533 64.231 45.6534 64.8699 45.6534C65.5088 45.6534 66.5736 45.8667 66.9995 46.5067C67.2125 46.9334 67.4254 47.1467 67.2125 47.5734ZM54.6476 86.6133C54.4346 86.4 54.2217 86.4001 54.0087 86.1867L56.5643 87.04C56.5643 87.2534 56.5643 87.4667 56.5643 87.4667C55.9254 87.2533 55.2865 87.04 54.6476 86.6133ZM57.2032 88.96C57.2032 88.96 57.2032 88.7467 57.2032 88.96C57.4161 89.1734 57.4161 89.1734 57.6291 89.3867V89.6V89.3867C57.8421 89.6001 57.842 89.6 58.055 89.8134H57.842C57.6291 89.8134 57.6291 89.8134 57.4161 90.0267L55.7124 91.0934C55.9253 90.24 56.3513 89.3867 57.2032 88.96ZM79.5643 62.08C79.7773 61.8667 80.2032 61.6534 80.4162 61.44C80.2032 61.8667 79.9903 62.08 79.5643 62.08C79.5643 62.2934 79.5643 62.2934 79.5643 62.08ZM58.9068 86.1867C59.7587 84.4801 60.6106 82.7733 61.6754 81.0667C63.805 77.2267 65.5087 74.4534 67.4254 72.1067C68.4902 70.6134 69.768 69.3333 71.0458 68.2667C72.3236 66.9867 73.6013 65.92 75.3051 65.4934H75.518C75.944 65.4934 76.5828 65.4934 77.0087 65.7067C76.5828 67.84 75.731 69.76 74.8791 71.68C73.1754 75.3067 70.6198 78.72 67.4254 81.7067C65.9346 83.2 64.231 84.48 62.5272 85.5467C61.6754 86.1867 60.8236 86.6134 59.7587 87.2534C59.5458 87.4667 59.3328 87.4667 59.1198 87.68C59.1198 87.68 58.9068 87.68 58.9068 87.8934C58.9068 87.68 58.9068 87.4667 59.1198 87.2534C58.9068 86.6134 58.9068 86.4001 58.9068 86.1867ZM77.8606 73.8133C76.5829 77.6534 74.0273 81.2801 70.6198 84.0534C67.4254 86.6134 63.5921 88.5334 59.7587 89.1734C59.7587 89.1734 59.5458 89.1734 59.5458 88.96L59.3328 88.7467C60.3976 88.1067 61.4624 87.4667 62.5272 86.8267C66.5736 84.2667 69.981 81.0667 72.5366 77.44C75.0921 74.0267 76.7958 70.4 78.0736 66.7734C78.9254 69.3334 78.4995 72.1067 77.8606 73.8133ZM80.2032 72.1067C79.9902 74.4534 79.3513 77.0134 78.0736 79.1467C76.3699 81.92 73.6014 84.48 70.4069 86.4C72.9625 84.48 75.0921 82.3467 77.0087 79.5734C78.4995 77.44 80.4162 73.8134 80.4162 70.1867C80.2032 70.8267 80.2032 71.4667 80.2032 72.1067ZM60.8236 93.0134C61.0365 93.2267 61.0365 93.44 61.2495 93.44C60.6106 93.0134 59.9717 92.3734 59.7587 91.5201C59.7587 91.3067 59.5458 91.0934 59.5458 91.0934H59.7587C59.9717 91.7334 60.1847 92.3734 60.8236 93.0134ZM59.1198 90.88C58.9068 90.88 58.4809 91.0934 58.4809 91.3067C58.268 91.52 58.268 91.7334 58.268 91.9467C58.268 91.52 58.268 91.0934 58.4809 90.88C58.4809 90.6667 58.4809 90.4534 58.4809 90.4534H58.6939L58.9068 90.6667C58.9068 90.6667 59.1198 90.6667 59.1198 90.88ZM59.1198 82.3467C59.1198 81.92 59.3328 81.4933 59.3328 81.0667C59.7587 78.2933 60.6106 75.7334 61.4624 73.1734C62.5272 70.6134 63.5921 68.6933 65.0828 67.2C67.2125 65.28 69.981 64 72.9624 64.2133C71.6847 64.8533 70.6198 65.9201 69.555 66.9867C65.0828 71.4667 62.1013 76.8 59.1198 82.3467ZM74.8791 63.1467C75.0921 62.72 75.518 62.7201 75.9439 62.7201C76.5828 62.7201 77.4347 62.9333 78.0736 63.1467H78.2865C78.4995 63.1467 78.4995 63.1467 78.7125 63.36C79.1384 63.5734 79.9902 64.0001 80.2032 64.8534C80.2032 65.0667 80.4162 65.4934 80.2032 65.7067C79.5643 64.8534 78.4995 64.4267 77.4347 63.7867C76.3699 63.5734 75.731 63.36 74.8791 63.1467ZM28.4531 70.4C28.666 70.4 28.6661 70.4 28.879 70.4C29.092 70.6133 29.0919 70.8267 29.0919 70.8267C29.0919 71.2534 28.666 71.68 28.4531 71.8934C28.666 71.68 28.666 71.4667 28.666 71.2534C28.666 70.8267 28.4531 70.6133 28.2401 70.6133C28.0271 70.6133 28.0272 70.4 27.8142 70.4H28.0271C28.0271 70.6133 28.2401 70.4 28.4531 70.4ZM26.7494 72.7467C26.3235 72.7467 25.8975 72.7467 25.4716 72.7467C25.2586 72.7467 25.0456 72.5333 25.0456 72.5333C25.0456 72.5333 25.0457 72.5334 25.2586 72.3201C25.4716 72.3201 25.4716 72.32 25.4716 72.1067H25.6846C25.8975 72.5334 26.3235 72.7467 26.7494 72.7467Z" fill="#EBE5E4"/>
<path d="M83.6 40.2222C83.8 40.4445 84 40.6667 84 40.8889C84 41.5556 83.8 42 83.2 42H83C82.8 42 82.6 42 82.4 41.7778C82.2 41.5555 82 41.3333 82 41.1111C82 40.4444 82.2 40 82.8 40C83.2 40 83.4 40 83.6 40.2222Z" fill="#EBE5E4"/>
<path d="M209.4 27C209.8 27.2222 210 27.4444 210 27.8889C210 28.3333 210 28.5555 209.6 28.7778C209.4 29 209.2 29 209 29C208.8 29 208.8 29 208.6 29C208.2 28.7778 208 28.5556 208 28.1111C208 27.6667 208 27.4445 208.4 27.2222C208.8 27 209.2 27 209.4 27Z" fill="#EBE5E4"/>
</svg>
