<svg width="229" height="96" viewBox="0 0 229 96" fill="none" xmlns="http://www.w3.org/2000/svg">
<path d="M225.561 24.1066C223.216 21.9733 220.232 20.9067 217.46 21.12C214.689 21.5467 212.13 23.4666 211.277 26.0266C210.851 27.3066 210.851 28.5867 211.064 29.8667C211.491 30.9333 212.13 32 213.196 32.8533C214.475 33.7067 215.968 34.3467 217.46 34.1333C218.526 33.92 219.592 33.4933 220.232 32.64C220.445 32.4266 220.658 32 220.658 31.5733C221.511 31.5733 222.15 31.1467 222.577 30.72C222.79 30.5067 223.003 30.08 223.003 29.6533C223.216 29.6533 223.43 29.2266 223.43 29.0133C223.43 28.7999 223.43 28.3733 223.216 28.3733C223.216 28.16 223.003 28.16 223.003 28.16C221.937 27.3066 220.658 26.6667 219.592 26.4533C218.1 26.24 216.82 26.4533 215.968 27.52C215.541 28.16 215.328 28.8 215.755 29.44C215.968 30.08 216.607 30.5067 217.034 30.9333C217.673 31.36 218.313 31.5733 219.166 31.7867C218.739 32.4267 218.1 32.8533 217.46 32.8533C216.607 33.0667 215.754 32.8533 214.902 32.2133C213.196 31.1466 212.13 29.0133 212.77 27.0933C213.409 24.96 215.328 23.2533 217.46 22.8266C219.805 22.4 222.364 23.2533 224.282 24.96C227.48 27.7333 228.546 32.64 227.054 37.12C226.414 39.2533 225.135 41.1733 223.43 42.6667C221.724 44.16 219.592 45.2267 217.247 45.6533C212.343 46.9333 206.8 45.44 203.602 42.24C203.176 41.8133 202.963 41.3866 202.536 40.96V40.7466C196.993 34.1333 189.958 29.2266 181.856 26.0266C182.283 25.8133 182.709 25.6 182.922 25.3867L183.135 25.1733C183.562 24.96 183.775 24.7467 184.201 24.32C184.415 25.3867 185.054 26.24 185.907 26.8799C187.186 27.7333 188.679 27.7333 190.597 27.3066C192.09 26.88 193.369 26.4533 195.074 25.6C196.78 24.96 198.059 24.1067 199.338 23.4667C199.978 23.04 200.618 22.6133 201.257 21.9733C201.47 21.76 201.684 21.5467 202.11 21.12C202.323 20.9067 202.75 20.48 202.75 20.0533C202.75 19.2 201.897 18.7733 201.257 18.56C201.257 18.56 201.044 18.5599 201.044 18.3466C200.404 17.9199 199.552 17.4933 198.699 17.0667C195.074 15.36 191.876 14.9333 189.318 15.7867C187.613 16.4267 186.333 17.4933 185.481 18.7733C185.054 19.4133 184.628 20.2667 184.628 21.12C184.628 21.5467 184.628 21.9733 184.628 22.1867C184.201 22.4 183.562 22.8266 183.135 23.04L182.709 23.4667C181.856 24.1067 180.79 24.7467 179.938 24.5333C179.724 24.5333 179.511 24.5333 179.298 24.7466C176.953 24.1066 174.821 23.4666 172.476 23.04C166.506 21.9733 160.537 21.9733 154.354 23.04C147.745 24.32 141.349 26.6667 136.659 28.5867C134.1 29.6533 131.755 30.72 129.197 31.5733C125.146 33.28 120.882 34.9866 116.618 36.6933C117.897 35.6266 118.75 34.3467 119.603 33.0667C120.243 32 120.669 30.9333 121.095 29.6533C121.735 29.8667 122.588 30.08 123.441 29.8667C124.08 29.6533 124.507 29.2267 124.72 28.8C125.786 29.2267 127.065 29.44 128.344 29.44C130.902 29.44 133.461 28.8 135.593 27.3066C137.512 26.0266 139.217 24.1066 140.923 21.5466C142.628 18.9866 144.121 16.4267 145.187 13.6533C145.613 13.2267 145.826 12.8 146.253 12.3733C146.466 12.16 146.679 11.7333 146.679 11.52L149.877 13.6533C150.09 13.8667 150.303 13.8667 150.516 13.6533C150.73 13.6533 150.943 13.44 150.943 13.2266C151.369 12.3733 151.156 11.0933 150.09 10.0266C149.664 9.59996 149.237 9.17328 148.598 8.74662C149.877 7.89328 150.73 6.61333 151.369 5.33333C151.582 5.12 151.369 4.69328 151.156 4.47995C150.943 4.26661 150.516 4.26667 150.303 4.26667L148.171 4.90664C148.385 3.83997 148.171 2.55995 147.958 1.27995C147.958 1.06661 147.745 0.639974 147.319 0.639974H147.105C146.679 0.639974 146.466 0.853281 146.466 1.27995C146.466 1.70661 146.253 2.13329 146.039 2.55996C145.4 1.06663 143.907 0 142.202 0C141.989 0 141.562 0.213294 141.562 0.426628C141.349 0.639961 141.349 0.853333 141.562 1.06667L142.841 3.41328C143.055 3.83995 143.268 4.26661 143.268 4.47995C142.415 4.26661 141.562 4.26667 140.923 4.26667C139.43 4.26667 137.938 4.47996 136.446 4.69329C132.182 5.33329 126.212 7.04 122.161 11.7333C120.243 13.8667 118.963 16.4267 118.324 19.2C118.111 20.2667 117.897 21.3333 118.111 22.6133C117.684 22.8266 117.471 23.2533 117.258 23.8933C116.831 24.7466 117.045 25.8133 117.471 26.6667C117.471 26.88 117.684 27.0933 117.897 27.0933C117.684 29.0133 116.618 30.72 114.913 32.64C113.42 34.3466 111.715 35.84 109.583 37.3333C108.517 38.1867 107.238 38.8267 105.959 39.4667C105.745 39.4667 105.745 39.68 105.532 39.68C103.4 40.1066 101.481 40.5333 99.7758 40.7466C97.4306 41.1733 95.0855 41.3867 92.5271 41.3867C88.05 35.2 82.5069 30.2933 76.5374 26.24C76.7506 26.24 76.7506 26.4533 76.9638 26.4533C80.5882 27.9467 84.4257 28.3733 88.2632 28.16C91.8875 27.9466 95.5118 26.88 98.7098 25.1733C101.908 23.4666 104.892 21.12 107.238 18.1333C110.222 14.2933 112.354 10.0266 113.847 6.61328C114.06 6.39995 113.847 5.97329 113.634 5.75996C113.42 5.54663 113.207 5.54661 112.994 5.54661C107.664 6.82661 102.121 6.18663 96.791 5.75996C94.2327 5.54663 91.6743 5.33332 89.116 5.11999C80.3749 4.90665 73.9791 6.82663 69.7152 11.0933C68.436 12.3733 66.9436 14.2933 66.9436 16.64C66.9436 17.7066 67.37 18.7733 68.0096 19.6266C65.0248 19.4133 62.0401 18.9866 59.0554 18.7733C43.7052 14.9333 27.0759 17.4933 13.6445 25.8133C11.939 26.8799 10.4466 27.9466 8.74105 29.2266C6.1827 28.5866 3.62435 28.7999 1.27919 30.08C0.852798 30.2933 0 30.72 0 31.5733C0 32.2133 0.213183 32.64 0.852772 33.0667C1.27916 33.28 1.70558 33.4933 2.34517 33.2799C2.98476 33.2799 3.62433 33.0667 4.26392 33.0667C5.7563 32.64 7.03546 32.2133 8.31464 31.36C8.52783 31.36 8.52786 31.3599 8.74105 31.1466L8.95426 30.9333C15.7765 30.5067 22.5988 32 29.421 33.4933L30.0607 33.7066C33.8982 34.56 37.5225 35.4133 41.1468 36.2667C43.492 36.9067 45.8372 37.3333 48.1823 37.76C52.6595 39.4666 57.1366 41.6 61.1873 44.5867C61.1873 44.5867 61.1873 44.5867 61.1873 44.8C62.0401 49.7067 63.9588 54.6133 66.7304 58.88C69.5019 63.1466 73.1263 66.7733 77.3902 69.5466C79.7353 71.04 82.5069 72.32 85.0652 73.3867C85.2784 73.3867 85.7048 73.3866 85.918 73.1733C86.1312 72.96 86.1312 72.7467 86.1312 72.32C85.2784 69.76 84.6389 66.9866 84.2125 64.2133C83.5729 61.2266 82.9333 58.0266 81.8673 55.04C79.7353 49.7066 75.4714 45.44 70.3547 43.0933C68.0096 42.0266 64.5984 41.3866 62.0401 43.0933C60.7609 42.24 59.4817 41.3866 58.2025 40.7466C57.3497 40.32 56.7102 39.8933 55.8574 39.4667C66.9436 41.6 79.309 43.52 91.8876 42.88C92.3139 43.52 92.9535 44.3733 93.3799 45.0133L93.5931 45.44C95.9382 48.64 98.2834 51.84 101.055 54.8266C101.268 56.96 102.121 59.0933 103.827 61.44C105.106 63.1466 106.598 64.8533 108.517 66.7733C109.583 67.6266 110.649 68.6933 111.715 69.5466V69.76C111.928 72.96 114.06 76.16 117.258 78.0799C120.243 80 124.293 80.64 128.984 79.7867C130.05 79.5733 131.329 79.36 132.608 79.1466H132.821C133.674 78.9333 134.953 78.72 135.38 77.6533C135.593 77.2267 135.38 76.8 134.953 76.5867C133.034 75.52 131.542 74.0267 129.836 72.5333C128.77 71.4667 127.491 70.3999 126.212 69.5466C122.588 66.7733 119.177 65.7066 115.979 66.3466C114.486 66.56 113.207 67.4133 112.568 68.2667C109.796 66.1333 107.451 63.7866 105.532 61.44C104.253 59.9466 103.4 58.24 102.974 56.96C109.37 62.5066 117.684 65.92 126.425 66.1333C133.674 66.3467 140.496 64.2133 146.253 61.8667C146.892 62.08 147.319 62.5067 147.958 62.9333C147.532 63.5733 147.319 64.4266 147.319 65.28C147.319 65.92 147.532 66.3466 147.958 66.7733C147.319 67.84 147.319 69.12 147.105 70.1867C146.892 72.96 147.532 75.9466 148.811 78.5066C151.582 84.0533 156.912 87.2533 160.963 88.96C162.242 89.6 163.521 90.0267 165.014 90.4533C165.867 90.6667 166.506 90.88 167.359 90.88C167.146 91.3066 166.933 91.52 166.719 91.9466L165.014 93.8667C164.801 94.08 164.801 94.2933 164.801 94.5066C164.801 94.72 165.014 94.9333 165.44 95.1466C166.933 95.5733 168.638 94.9333 169.704 93.6533C169.704 94.08 169.704 94.5066 169.704 95.1466C169.704 95.5733 169.917 95.7867 170.13 96H170.344C170.557 96 170.983 95.7866 170.983 95.5733C171.623 94.5066 172.049 93.2266 172.262 92.16L174.181 93.44C174.394 93.6533 174.821 93.6533 175.034 93.44C175.247 93.2266 175.46 93.0133 175.46 92.8C175.247 91.3067 174.608 89.8133 173.755 88.7466C174.394 88.5333 175.034 88.1066 175.46 87.8933C176.74 87.04 177.379 85.9733 177.166 84.9066C177.166 84.6933 176.953 84.48 176.74 84.2667C176.526 84.0533 176.313 84.0533 176.1 84.2667L172.262 85.5466C172.262 85.1199 172.049 84.9066 172.049 84.4799C171.836 84.0533 171.623 83.6267 171.41 82.9867C170.983 80 170.344 77.0133 169.278 74.24C168.212 71.2533 167.146 69.12 165.653 67.2C163.948 65.0667 161.603 63.7866 159.258 63.1466C157.978 62.9333 156.912 62.72 155.633 62.9333C155.42 62.2933 155.207 61.8667 154.567 61.6533C153.501 61.0133 152.009 61.44 151.156 61.6533H150.943C150.73 61.44 150.303 61.0133 150.09 60.8C151.156 60.3733 152.009 59.9467 153.075 59.52L153.714 59.3066C154.354 58.88 155.207 58.6667 155.846 58.4533H156.06C161.389 57.6 166.719 58.4533 171.623 60.5867C172.689 61.0133 173.755 61.6533 174.608 62.2933C174.608 62.2933 174.608 62.5066 174.821 62.5066C174.394 63.36 174.608 64.4267 174.608 65.0667V65.28C174.608 65.4933 174.608 65.7067 174.608 65.92C174.821 66.9867 175.034 68.0533 175.674 68.9066C177.379 70.8266 180.151 70.6133 182.283 69.5466C184.201 68.2666 185.481 66.1333 185.694 63.36C185.694 62.08 185.694 61.0133 185.054 59.9466C184.415 58.88 183.562 58.24 182.283 57.8133C180.364 57.3866 177.806 57.8133 176.526 59.7333H176.313C172.476 57.3867 168.212 55.8933 163.948 55.4667C170.131 53.5467 175.887 52.48 181.43 52.2667C186.333 52.0533 191.237 52.4799 195.714 53.5466C201.044 54.8266 205.521 56.7466 208.719 59.0933C212.983 62.08 215.115 66.1333 214.475 70.4C214.049 74.4533 210.425 77.44 205.947 77.44C201.684 77.44 196.78 74.6667 196.354 70.1867C196.14 68.2667 196.993 65.7067 199.125 64.8533C200.831 64.2133 203.176 64.4267 204.029 66.1333C204.455 66.9867 204.455 68.0533 204.242 68.9066C204.029 69.3333 203.816 69.9733 202.963 70.4C202.323 69.9733 201.684 69.7599 201.044 69.5466C200.618 69.3333 199.765 69.3333 199.125 69.76C198.486 70.1866 198.272 70.6133 198.059 71.2533C198.059 72.7467 199.125 73.8133 199.978 74.24C201.257 74.88 202.75 75.0933 203.816 74.4533C204.668 74.0267 205.095 73.3867 204.882 72.5333C204.668 72.1067 204.455 71.68 203.816 71.2533C203.816 71.2533 203.816 71.2533 203.816 71.04C204.882 70.1866 205.521 68.9066 205.521 67.4133C205.521 65.7066 204.668 64 203.176 63.1466C201.47 62.2933 199.765 62.08 198.059 63.1466C196.14 64.2133 194.648 66.1333 194.435 68.2667C194.009 72.1067 196.14 75.52 199.978 77.2266C203.815 79.1466 209.785 79.36 213.196 75.9466C216.607 72.5333 216.394 67.2 214.689 63.5733C212.983 59.9466 209.359 56.9599 204.029 54.6133C195.288 50.7733 184.841 49.4933 173.968 51.2C170.344 51.84 166.506 52.6933 162.669 53.9733C163.095 53.12 163.521 52.48 164.161 51.84C165.44 52.48 167.146 52.2666 168.212 51.84C169.278 51.4133 169.917 50.56 169.917 49.7066C170.131 48.4266 169.278 47.36 168.851 46.72C167.785 45.2267 165.867 44.3733 163.948 44.3733C162.029 44.3733 159.897 45.0133 159.471 46.9333C159.257 48 159.684 49.0667 160.537 49.92C160.75 50.1333 160.963 50.3466 161.176 50.3466C160.11 51.6266 159.471 53.3333 158.831 55.04H158.618C155.846 56.1066 153.075 57.3867 150.516 58.4533C148.385 59.3067 146.253 60.3733 144.121 61.2266C138.364 63.5733 133.674 64.64 129.197 64.8533C124.293 65.0667 119.177 64.2133 114.486 62.5066C109.796 60.8 105.532 58.0266 102.121 54.6133C99.3494 51.84 96.791 48.4266 94.4459 45.2266C94.0195 44.5866 93.5931 44.16 93.1667 43.52C99.7758 43.0933 106.385 41.8133 112.568 39.68C117.897 37.9733 123.227 35.6266 128.344 33.4933L130.05 32.8533C133.674 31.36 137.511 29.6533 141.562 28.16C141.562 28.16 141.775 28.16 141.989 28.16C144.973 28.16 148.811 28.3733 152.648 29.0133C152.222 30.7199 152.222 32.4267 152.862 34.1333C153.714 35.84 155.207 37.3333 157.552 38.4C161.603 40.32 166.293 41.8133 171.41 42.6667C172.049 42.6667 172.689 42.88 173.328 42.88H173.755C174.181 42.88 174.608 43.0933 175.034 43.0933C175.46 43.0933 175.674 42.88 175.887 42.6667C176.1 42.4533 176.1 42.0266 176.1 41.8133C176.1 41.3866 175.887 40.96 175.887 40.5333V40.32C175.46 38.1867 174.608 36.2666 173.755 34.3466C171.623 30.2933 168.638 27.3066 165.014 25.8133C163.095 24.9599 160.963 24.5333 158.831 24.5333C157.765 24.5333 156.699 24.7466 155.846 24.96C154.994 25.1733 153.928 25.6 153.288 26.6667C153.075 26.88 153.075 27.0933 153.075 27.52C152.435 27.52 151.796 27.3066 151.156 27.3066C149.45 27.0933 147.745 26.8799 145.826 26.8799C153.288 24.5333 159.471 23.68 165.653 24.1066C177.592 24.96 189.105 30.08 197.42 38.4C198.486 39.4667 199.338 40.5333 200.404 41.6C201.897 43.9467 204.455 45.6533 207.44 46.72C209.998 47.5733 212.77 47.7866 215.328 47.36C220.871 46.5066 225.562 43.0933 227.267 38.1867C230.252 33.28 229.186 27.52 225.561 24.1066ZM221.298 29.8667C221.511 29.6533 221.724 29.2266 221.724 29.0133V29.2266C221.724 29.44 221.724 29.44 221.724 29.6533C221.511 29.8667 221.298 29.8666 221.084 30.08C221.298 30.08 221.298 29.8667 221.298 29.8667ZM217.886 29.2266C218.1 29.44 218.526 29.6533 218.952 29.8667C218.739 29.8667 218.526 29.6533 218.313 29.44C217.673 29.0133 217.247 28.5866 217.247 28.3733C217.247 28.3733 217.247 28.16 217.46 28.16C217.673 27.9466 217.673 27.9466 217.886 27.9466L217.673 28.16C217.673 28.5866 217.673 29.0133 217.886 29.2266ZM196.14 18.1333C197.633 18.7733 199.125 19.4133 200.191 20.0533H200.404C200.618 20.2667 200.831 20.2666 201.257 20.4799C200.831 20.9066 200.404 21.3333 199.765 21.76C197.42 23.4666 194.861 24.5333 192.516 25.3867C191.024 25.8133 189.318 26.4533 188.039 26.0266C186.973 25.6 186.12 24.7466 186.333 23.6799V23.4667C188.679 22.1867 191.024 21.5467 193.369 21.3333C194.861 21.12 196.14 21.3333 197.42 21.5466C197.633 21.5466 197.846 21.5467 198.059 21.3333C198.272 21.12 198.272 21.12 198.272 20.9066C198.272 20.48 198.059 20.0533 197.633 20.0533C194.009 19.2 189.958 19.84 186.12 21.76C186.12 21.5466 186.12 21.3333 186.333 21.12C186.76 20.0533 187.399 18.9866 188.465 18.3466C191.237 16.6399 194.648 17.4933 196.14 18.1333ZM156.486 26.8799C157.126 26.6666 157.978 26.4533 159.044 26.24C160.75 26.0266 162.669 26.24 164.374 26.8799C167.572 28.16 170.557 30.5066 172.476 33.7066C173.115 34.7733 173.542 35.84 174.181 36.9066C172.049 34.56 169.278 32.6399 166.08 31.1466C162.882 29.6533 159.471 28.3733 155.207 27.7333C155.633 27.52 156.06 27.0933 156.486 26.8799ZM155.207 29.44C156.273 29.6533 157.339 29.8666 158.405 30.08C163.095 31.1466 167.146 33.0666 170.344 35.6266C172.262 37.12 173.968 38.8266 175.247 40.7466C175.247 40.9599 175.46 40.96 175.674 40.96C175.674 41.1733 175.887 41.3867 175.887 41.6H175.46C174.821 41.6 174.394 41.3867 173.755 41.3867C169.278 40.7467 165.014 39.68 160.963 37.9733C159.044 37.12 157.339 36.2667 156.273 34.9867C155.207 33.7067 154.78 32 155.207 30.2933C154.994 30.08 154.994 29.8666 155.207 29.44ZM145.613 5.97331C145.4 5.75997 145.4 5.75997 145.613 5.97331C145.613 5.33331 145.4 4.47997 144.973 3.83997C144.973 3.62664 144.76 3.41333 144.76 3.2C145.4 3.84 145.613 4.69328 145.613 5.54661C145.4 5.54661 145.4 5.75997 145.613 5.97331ZM125.573 27.9466C127.065 27.7333 128.344 26.88 129.623 26.24C135.166 23.2533 139.643 18.7733 143.694 14.2933C143.481 14.72 143.268 14.9333 143.268 15.36C141.989 17.92 140.709 20.2667 139.004 22.4C137.298 24.5333 135.593 26.24 133.887 27.0933C131.542 28.5866 128.344 28.7999 125.573 27.9466ZM125.999 20.9066C128.77 17.92 131.968 15.36 135.806 13.2266C137.725 12.16 139.643 11.3067 141.562 10.6667C142.628 10.24 143.481 10.0266 144.547 9.81328C144.76 9.81328 144.973 9.6 145.4 9.6H145.613C145.613 9.81333 145.4 10.0266 145.4 10.24C145.187 10.4533 145.187 10.6666 145.187 10.8799C143.694 12.3733 142.415 13.8666 141.136 15.1466C138.151 18.1333 135.593 20.48 133.248 22.4C131.755 23.4667 130.263 24.5333 128.77 25.1733C127.278 26.0266 125.573 26.88 123.867 26.6667H123.654C123.227 26.4533 122.801 26.24 122.375 26.0266C123.227 24.1066 124.507 22.4 125.999 20.9066ZM141.775 8.95996C137.298 10.4533 133.248 12.5866 129.623 15.36C126.212 17.92 123.654 20.9067 121.522 24.32C121.095 21.76 122.375 19.2 123.441 17.7066C125.573 14.5066 129.197 11.5199 133.248 9.81328C137.085 8.10662 141.136 7.46662 145.187 7.67995L145.4 7.89329L145.613 8.10664C144.334 8.31997 143.055 8.53329 141.775 8.95996ZM125.999 12.3733C124.08 14.08 121.309 17.0666 120.243 20.6933C120.456 20.0533 120.669 19.2 120.669 18.7733C121.522 16.4266 122.801 14.2933 124.507 12.5867C126.852 10.24 130.05 8.53328 133.887 7.67995C131.116 8.74662 128.344 10.24 125.999 12.3733ZM121.522 27.52C122.161 27.9467 122.801 28.3733 123.441 28.8C123.441 28.8 123.441 28.8 123.227 28.8C123.014 29.0133 122.588 29.0133 122.161 28.8C121.309 28.5867 120.456 28.16 119.816 27.52L119.603 27.3066C119.603 27.0933 119.603 27.0933 119.39 26.8799L119.177 26.6667C118.963 26.24 118.963 26.0267 118.75 25.6C118.75 25.1733 118.75 24.9599 118.963 24.7466C119.816 25.8133 120.456 26.6667 121.522 27.52ZM118.537 31.7867C118.963 30.9333 119.39 30.08 119.603 29.2266L119.816 29.44C118.537 33.28 115.766 36.6933 111.928 38.6133C112.568 38.1866 112.994 37.76 113.42 37.3333C115.979 35.4133 117.471 33.4933 118.537 31.7867ZM147.532 10.0266C148.171 10.4533 148.811 10.88 149.237 11.52C149.45 11.7333 149.451 11.9466 149.664 12.16L147.319 10.6667C147.532 10.4533 147.532 10.24 147.532 10.0266ZM147.532 8.53333C147.319 8.53333 147.319 8.53333 147.532 8.53333C147.532 8.32 147.319 8.31997 147.319 8.10664V7.89329V8.10664C147.319 7.89331 147.105 7.68 147.105 7.46667C147.319 7.68 147.532 7.68 147.745 7.46667L149.664 6.82663C149.024 7.67996 148.171 8.10667 147.532 8.53333ZM146.679 6.4C146.466 6.61333 146.466 6.82664 146.466 7.03997C146.253 6.82664 146.253 6.82661 146.039 6.61328C146.039 6.39995 146.039 6.4 145.826 6.4C146.039 6.4 146.466 6.39999 146.679 6.18665C146.892 5.97332 147.105 5.75995 147.105 5.54661C147.105 5.75995 146.892 5.97333 146.679 6.4ZM64.1721 47.36C68.8624 51.2 72.9131 55.4667 76.3242 60.5867C78.243 63.36 79.7354 66.3466 81.2277 69.5466C81.4409 69.7599 81.6541 69.9733 81.8673 69.9733C82.0805 69.9733 82.5069 69.9733 82.5069 69.76C82.7201 69.5466 82.7201 69.3333 82.5069 69.12C80.1618 63.36 76.7506 58.24 72.6999 53.5466C69.9283 50.56 66.9436 47.7866 63.7456 45.2266C65.6644 44.3733 68.0096 44.8 69.7152 45.44C72.0603 46.2933 74.4054 47.7866 76.3242 49.7066C78.243 51.6266 79.7353 53.76 80.8013 56.32C81.8673 58.88 82.5069 61.6533 82.9333 64.4266L83.1465 65.4933C83.5729 67.84 83.9993 70.1867 84.6389 72.32C80.5882 70.8267 76.9638 68.2666 73.7659 65.28C70.1415 61.8666 67.37 57.8133 65.4512 53.3333C64.5985 51.2 63.9589 49.0667 63.3193 46.72C63.7457 46.9333 63.9589 47.1466 64.1721 47.36ZM48.8219 37.12C46.4767 36.6933 44.1316 36.0533 41.7865 35.4133C39.6545 34.9866 37.7357 34.56 35.6038 33.92L33.2586 33.2799C26.8627 31.7866 20.4668 30.2933 13.8577 30.08C13.005 30.08 12.3654 30.08 11.5126 30.08C24.9439 20.2666 42.2128 16.8533 58.2025 20.4799C58.4157 20.6933 58.4157 20.6933 58.6289 20.6933L59.6949 20.9066H59.9081C60.1213 20.9066 60.5477 21.12 60.7609 21.12C69.7151 23.68 78.0298 28.3733 84.6389 34.7733C86.7709 36.9066 88.9028 39.2533 91.2479 42.24C78.6693 42.6666 66.0908 40.5333 57.7762 39.04C54.5782 38.4 51.5935 37.76 49.2483 37.12C49.0351 37.12 49.0351 37.12 48.8219 37.12ZM69.9283 22.8266C70.3547 23.04 70.5679 23.4666 70.9943 23.6799C70.7811 23.4666 70.3547 23.4667 70.1415 23.2533C69.0755 22.8267 68.0095 22.1866 66.7304 21.76C67.5831 21.76 68.436 21.9733 69.2887 21.9733C69.5019 22.4 69.9283 22.8266 69.9283 22.8266ZM71.6339 22.1867C74.6187 22.4 77.8166 22.6133 81.2277 22.4C85.2785 22.4 88.6896 21.9733 91.6743 20.9066C94.6591 20.0533 97.4306 18.56 100.415 16.64C103.827 14.5066 106.598 11.9466 109.156 9.81328C109.583 9.59995 109.583 8.95995 109.156 8.74662C108.943 8.53328 108.517 8.31995 108.09 8.74662C103.4 12.7999 98.2834 17.0667 92.3139 19.2C89.3292 20.2667 86.1312 20.6933 82.2937 20.9066C78.8826 21.12 75.4714 20.9066 71.4207 20.6933H71.2075L70.9943 20.4799C69.7151 19.8399 69.0755 18.3466 69.0755 17.2799C69.0755 15.5733 70.1415 14.0799 71.2075 13.0133C73.1263 10.8799 76.111 9.38667 79.5221 8.53333C85.2784 7.04 91.4612 7.46664 97.2175 8.10664C98.2834 8.10664 99.5626 8.31999 100.629 8.31999C104.253 8.53332 108.304 8.74664 112.568 8.10664C111.075 11.7333 109.583 14.2933 107.877 16.64C105.745 19.6266 103.187 21.9733 100.415 23.8933C94.4459 27.52 87.4104 28.5866 80.8013 26.8799C78.8826 26.4533 76.9638 25.6 75.2582 24.5333C74.4054 24.1067 73.5527 23.4666 72.6999 22.8266C72.0603 22.6133 71.8471 22.4 71.6339 22.1867ZM1.91875 32.64C1.91875 32.64 2.34513 32.4266 2.77152 32.2133H2.98473C3.83752 31.7866 4.90354 31.5733 5.75632 31.36C6.39591 31.36 6.82228 31.36 7.46186 31.36C6.82228 31.7866 5.96949 32 5.3299 32.4266C4.90351 32.64 4.2639 32.64 3.8375 32.8533C3.41111 32.8533 2.98477 33.0667 2.55838 32.8533C2.13199 32.64 2.13195 32.64 1.91875 32.64ZM120.882 75.3066C123.227 76.3733 125.999 77.2267 128.557 77.8667C128.77 77.8667 128.984 77.8667 129.197 77.6533C129.41 77.6533 129.41 77.44 129.41 77.2266C129.41 76.8 129.197 76.3733 128.77 76.3733C124.293 75.3066 120.029 73.6 116.192 71.04C115.552 70.6133 114.913 70.1866 114.273 69.76C114.7 69.12 115.552 68.48 116.831 68.2667C118.111 68.0533 119.816 68.2666 121.522 68.9066C124.507 69.9733 127.065 72.1066 129.41 74.24L130.05 74.6667C131.116 75.7333 132.395 76.8 133.887 77.6533C133.674 77.8667 133.248 77.8666 132.821 78.0799H132.395C131.329 78.2933 130.476 78.5067 129.623 78.72C127.491 79.1467 125.573 79.1467 123.867 78.9333C120.456 78.5067 117.471 77.0133 115.765 74.6667C114.913 73.6 114.486 72.5333 114.06 71.2533C116.192 72.96 118.537 74.24 120.882 75.3066ZM176.953 62.2933L177.592 61.44C177.806 61.44 177.806 61.2266 178.019 61.0133C178.445 59.52 180.151 58.88 181.643 59.0933C182.496 59.0933 183.349 59.52 183.988 59.9466C184.415 60.3733 184.841 61.2266 184.841 62.2933C184.841 64.2133 184.201 66.1333 182.922 67.4133C182.496 67.84 182.07 68.0533 181.43 68.4799L182.283 66.7733C182.496 66.7733 182.709 66.7733 182.922 66.56C183.349 66.3466 183.775 65.92 184.201 65.28C184.415 65.0666 184.628 64.4267 184.415 64C184.415 63.7867 184.201 63.5733 183.988 63.36L184.201 62.9333L183.988 63.1466C183.775 62.9333 183.349 62.72 182.922 62.9333C181.856 63.1467 181.004 64.4266 181.004 65.4933C181.004 65.92 181.217 66.3466 181.43 66.56L181.217 67.2L181.643 66.7733V68.2667C180.577 68.6933 179.511 68.6933 178.658 68.2667C178.232 68.0533 177.806 67.84 177.592 67.4133C177.379 66.9866 177.166 66.3467 177.166 65.92V65.4933C177.166 65.0666 176.953 64.64 176.953 64.2133C176.74 63.36 176.953 63.1466 177.166 63.1466C177.379 63.1466 177.592 62.9333 177.592 62.72C176.953 62.5067 176.953 62.5066 176.953 62.2933ZM173.115 59.3066C173.755 59.52 174.394 59.9466 175.034 60.3733C172.262 58.6666 169.065 57.6 165.867 56.96C168.425 57.3866 170.77 58.24 173.115 59.3066ZM162.029 46.72C162.455 46.08 163.308 45.8667 164.161 45.8667C164.801 45.8667 165.44 45.8666 165.867 46.0799C165.653 46.0799 165.227 46.2933 165.014 46.5066C164.801 46.72 164.587 47.1466 164.801 47.5733C165.014 47.7866 165.227 48 165.227 48.2133C165.44 48.4266 165.653 48.4266 165.867 48.64C166.08 48.64 166.293 48.8533 166.506 48.8533C166.719 48.8533 166.719 48.8533 166.933 48.8533C167.146 48.8533 167.359 48.64 167.359 48.4266C167.359 48.4266 167.359 48.4266 167.359 48.2133C167.572 47.7866 167.359 47.5733 167.146 47.1466C167.146 46.9333 166.933 46.72 166.719 46.5066L166.506 46.9333L166.719 46.5066C167.146 46.72 167.359 46.9333 167.785 47.1466C168.425 47.5733 169.065 48.6399 169.065 49.2799C169.065 49.7066 168.851 49.92 168.638 50.1333C168.212 50.56 167.572 50.56 166.719 50.56C166.08 50.56 165.227 50.56 164.801 49.92C164.587 49.7067 164.374 49.7066 164.161 49.7066C164.161 49.7066 164.161 49.7066 163.948 49.7066H163.735C162.455 49.0666 161.816 48.4267 161.816 47.7867C161.816 47.36 161.816 47.1467 162.029 46.72ZM172.476 87.68C172.476 87.4666 172.476 87.2533 172.476 87.2533L175.034 86.4C174.821 86.6133 174.608 86.6133 174.394 86.8266C173.968 87.2533 173.328 87.4666 172.476 87.68ZM173.542 91.3066L171.836 90.24C171.623 90.24 171.623 90.0266 171.41 90.0266H171.196C171.41 89.8133 171.41 89.8133 171.623 89.6V89.8133V89.6C171.836 89.3867 171.836 89.3866 171.836 89.1733C172.689 89.6 173.328 90.4533 173.542 91.3066ZM149.451 62.5066C149.237 62.2933 149.024 62.08 148.598 61.8667C149.024 61.8667 149.237 62.08 149.451 62.5066ZM170.344 87.04C170.344 87.2533 170.557 87.4666 170.557 87.68C170.557 87.68 170.344 87.68 170.344 87.4667C170.131 87.2533 169.917 87.2533 169.704 87.04C168.851 86.6133 167.999 85.9733 166.933 85.3333C165.227 84.0533 163.521 82.7733 162.029 81.4933C158.831 78.5066 156.273 75.0933 154.567 71.4667C153.714 69.5467 152.862 67.6266 152.435 65.4933C152.862 65.28 153.288 65.28 153.928 65.28H154.141C155.846 65.7066 157.126 66.7733 158.405 68.0533C159.684 69.12 160.75 70.6133 162.029 71.8933C163.948 74.4533 165.653 77.2267 167.785 80.8533C168.638 82.56 169.704 84.2666 170.557 85.9733C170.344 86.6133 170.344 86.8266 170.344 87.04ZM151.156 67.2C152.222 71.04 154.141 74.6667 156.699 77.8667C159.471 81.4933 162.882 84.6933 166.719 87.2533C167.785 87.8933 168.851 88.5333 169.917 89.1733L169.704 89.3867C169.704 89.3867 169.491 89.3867 169.491 89.6C165.44 88.7467 161.816 87.04 158.618 84.4799C155.207 81.7066 152.648 78.08 151.369 74.24C150.516 72.32 150.09 69.5467 151.156 67.2ZM149.024 70.4C149.024 74.0267 150.943 77.6533 152.435 79.7867C154.141 82.3467 156.486 84.6933 159.044 86.6133C155.633 84.6933 153.075 82.3466 151.369 79.36C150.09 77.2266 149.237 74.88 149.237 72.32C149.024 71.68 148.811 71.04 149.024 70.4ZM169.278 91.3066C169.278 91.3066 169.491 91.3066 169.278 91.3066C169.278 91.3066 169.278 91.52 169.278 91.7333C169.065 92.5867 168.638 93.2267 167.785 93.6533C167.999 93.44 167.999 93.2266 168.212 93.2266C168.851 92.5866 169.278 91.9466 169.278 91.3066ZM170.344 90.88L170.557 90.6667H170.77C170.77 90.88 170.77 91.0933 170.77 91.0933C170.983 91.52 170.983 91.7333 170.983 92.16C170.983 91.9466 170.77 91.7333 170.77 91.52C170.557 91.3067 170.344 91.0933 170.13 91.0933C170.13 90.88 170.131 90.88 170.344 90.88ZM159.471 67.4133C158.405 66.3466 157.339 65.28 156.06 64.64C159.044 64.4266 161.816 65.4933 163.948 67.6266C165.44 69.12 166.506 71.04 167.572 73.6C168.638 76.16 169.278 78.72 169.704 81.4933C169.704 81.92 169.917 82.3466 169.917 82.7733C167.146 77.0133 163.948 71.68 159.471 67.4133ZM152.009 64C150.943 64.4267 149.877 65.0667 149.237 65.92C149.237 65.7067 149.237 65.28 149.237 65.0667C149.45 64.2133 150.09 63.7866 150.73 63.5733C150.73 63.5733 150.943 63.5733 151.156 63.36H151.369C152.009 63.1466 152.862 62.9333 153.501 62.9333C153.928 62.9333 154.354 62.9333 154.567 63.1466C154.567 63.1466 154.567 63.1466 154.567 63.36C153.501 63.5733 152.648 63.7867 152.009 64ZM201.257 70.8266H201.47C201.257 70.8266 201.257 70.8266 201.044 71.04C201.044 71.04 200.831 71.2533 200.618 71.68C200.618 71.8933 200.618 72.1067 200.831 72.32C200.618 72.1067 200.191 71.68 200.191 71.2533C200.191 71.2533 200.191 70.8266 200.404 70.8266C200.404 70.8266 200.618 70.8266 200.831 70.8266C200.831 70.6133 201.044 70.8266 201.257 70.8266ZM203.389 72.32C203.602 72.5333 203.816 72.5333 203.816 72.5333C204.029 72.5333 204.029 72.7466 204.029 72.7466C204.029 72.7466 203.816 72.96 203.602 72.96C203.176 73.1733 202.75 73.1733 202.323 72.96C202.963 72.96 203.176 72.7467 203.389 72.32Z" fill="#EBE5E4"/>
<path d="M145.4 40.2222C145.2 40.4445 145 40.6667 145 40.8889C145 41.5556 145.2 42 145.8 42H146C146.2 42 146.4 42 146.6 41.7778C146.8 41.5555 147 41.3333 147 41.1111C147 40.4444 146.8 40 146.2 40C145.8 40 145.6 40 145.4 40.2222Z" fill="#EBE5E4"/>
<path d="M19.6 28C19.2 28.2222 19 28.4444 19 28.8889C19 29.3333 19 29.5555 19.4 29.7778C19.6 30 19.8 30 20 30C20.2 30 20.2 30 20.4 30C20.8 29.7778 21 29.5556 21 29.1111C21 28.6667 21 28.4445 20.6 28.2222C20.4 28 20 28 19.6 28Z" fill="#EBE5E4"/>
</svg>
