<svg width="40" height="43" viewBox="0 0 40 43" fill="none" xmlns="http://www.w3.org/2000/svg">
<path d="M32.25 7.16659H28.75V3.58325H25.25V7.16659H14.75V3.58325H11.25V7.16659H7.75C5.81975 7.16659 4.25 8.77371 4.25 10.7499V35.8333C4.25 37.8095 5.81975 39.4166 7.75 39.4166H32.25C34.1803 39.4166 35.75 37.8095 35.75 35.8333V10.7499C35.75 8.77371 34.1803 7.16659 32.25 7.16659ZM25.866 28.1488L20.0035 34.0416L14.1427 28.1488C13.7813 27.7929 13.4937 27.3659 13.2973 26.8935C13.1009 26.4211 12.9996 25.9129 12.9996 25.3995C12.9996 24.886 13.1009 24.3779 13.2973 23.9055C13.4937 23.433 13.7813 23.0061 14.1427 22.6502C14.8712 21.9139 15.8535 21.5011 16.8771 21.5011C17.9007 21.5011 18.8831 21.9139 19.6115 22.6502L20.0035 23.0425L20.3955 22.6502C21.1242 21.9138 22.1069 21.5009 23.1307 21.5009C24.1546 21.5009 25.1373 21.9138 25.866 22.6502C26.2275 23.0061 26.515 23.433 26.7114 23.9055C26.9079 24.3779 27.0091 24.886 27.0091 25.3995C27.0091 25.9129 26.9079 26.4211 26.7114 26.8935C26.515 27.3659 26.2275 27.7929 25.866 28.1488V28.1488ZM32.25 16.1249H7.75V12.5416H32.25V16.1249Z" fill="#5F4938"/>
</svg>
