<svg width="40" height="42" viewBox="0 0 40 42" fill="none" xmlns="http://www.w3.org/2000/svg">
<path fill-rule="evenodd" clip-rule="evenodd" d="M10.101 8.50497C12.7267 5.74804 16.2878 4.19922 20.001 4.19922C23.7142 4.19922 27.2754 5.74804 29.901 8.50497C32.5267 11.2619 34.0017 15.0011 34.0017 18.9C34.0017 22.7988 32.5267 26.538 29.901 29.295L20.001 39.69L10.101 29.295C8.80084 27.9299 7.76948 26.3093 7.06582 24.5258C6.36217 22.7422 6 20.8305 6 18.9C6 16.9694 6.36217 15.0578 7.06582 13.2742C7.76948 11.4906 8.80084 9.87001 10.101 8.50497V8.50497ZM20.001 23.1C21.0619 23.1 22.0793 22.6575 22.8294 21.8698C23.5796 21.0822 24.001 20.0139 24.001 18.9C24.001 17.7861 23.5796 16.7178 22.8294 15.9301C22.0793 15.1425 21.0619 14.7 20.001 14.7C18.9401 14.7 17.9227 15.1425 17.1726 15.9301C16.4224 16.7178 16.001 17.7861 16.001 18.9C16.001 20.0139 16.4224 21.0822 17.1726 21.8698C17.9227 22.6575 18.9401 23.1 20.001 23.1Z" fill="#5F4938"/>
<path d="M19.9999 24C22.7352 22.8171 24.7147 20.7977 25.7825 18.7529C26.8339 16.7166 26.9818 14.6888 26.0454 13.4721C25.1994 12.3821 24.0987 11.9681 22.9816 12.0019C21.8645 12.0357 20.7802 12.5342 19.9999 13.2355C19.2196 12.5342 18.1353 12.0357 17.0182 12.0019C15.9011 11.9681 14.8005 12.3821 13.9544 13.4721C13.018 14.6888 13.1659 16.7166 14.2337 18.7529C15.2851 20.7977 17.2647 22.8171 19.9999 24Z" fill="#D0BFAC"/>
</svg>
