<svg width="42" height="43" viewBox="0 0 42 43" fill="none" xmlns="http://www.w3.org/2000/svg">
<path d="M20.9993 36.808C27.9923 33.798 33.0533 28.6595 35.7833 23.4565C38.4713 18.275 38.8493 13.115 36.4553 10.019C34.2923 7.24553 31.4783 6.19203 28.6223 6.27803C25.7663 6.36403 22.9943 7.63253 20.9993 9.41703C19.0043 7.63253 16.2323 6.36403 13.3763 6.27803C10.5203 6.19203 7.70629 7.24553 5.54329 10.019C3.14929 13.115 3.52729 18.275 6.25729 23.4565C8.94529 28.6595 14.0063 33.798 20.9993 36.808Z" fill="#5F4938"/>
<rect x="18.666" y="13.1389" width="2.33333" height="9.55556" rx="1.16667" fill="#D0BFAC"/>
<rect width="2.38144" height="7.82862" rx="1.19072" transform="matrix(0.36059 -0.932724 0.926796 0.375564 18.666 22.5269)" fill="#D0BFAC"/>
</svg>
